<?xml version="1.0" standalone="no"?>
<!DOCTYPE svg PUBLIC "-//W3C//DTD SVG 20010904//EN"
 "http://www.w3.org/TR/2001/REC-SVG-20010904/DTD/svg10.dtd">
<svg version="1.0" xmlns="http://www.w3.org/2000/svg"
 width="907.000000pt" height="907.000000pt" viewBox="0 0 907.000000 907.000000"
 preserveAspectRatio="xMidYMid meet">
<metadata>
Created by potrace 1.11, written by Peter Selinger 2001-2013
</metadata>
<g transform="translate(0.000000,907.000000) scale(0.100000,-0.100000)"
fill="#000000" stroke="none">
<path d="M0 4535 l0 -4535 232 0 231 0 -47 32 c-85 56 -210 183 -244 246 -39
74 -41 116 -6 214 14 40 38 112 53 159 15 48 37 100 48 115 19 27 64 208 78
314 22 156 147 530 238 710 127 249 241 466 259 492 22 32 23 63 2 163 -15 75
-15 79 3 104 33 44 110 96 177 120 43 15 76 35 102 63 116 120 344 229 594
284 124 27 163 40 206 69 18 12 47 27 65 34 19 7 61 23 94 36 33 12 96 34 140
48 79 25 305 126 305 137 0 3 -138 4 -307 2 -406 -5 -500 -5 -610 -4 -89 2
-93 3 -93 25 0 18 -2 19 -10 7 -6 -9 -10 -10 -10 -3 0 24 12 42 26 36 9 -3 14
0 12 7 -3 14 34 26 107 35 40 5 574 8 591 4 5 -2 29 0 54 4 25 3 113 9 195 12
83 3 161 8 175 10 35 6 230 18 260 16 35 -2 103 26 208 86 51 29 97 53 103 53
26 0 68 33 93 73 35 55 132 125 194 141 l47 11 0 60 0 60 -105 -2 c-140 -2
-462 -12 -525 -17 -66 -5 -464 -7 -490 -3 -27 5 -33 37 -7 37 11 0 22 6 24 13
5 13 32 18 121 20 31 1 57 6 57 11 0 5 3 6 7 3 3 -4 11 -3 18 3 6 5 33 11 60
14 28 3 82 12 120 19 39 8 95 15 125 16 55 1 136 7 220 17 25 2 97 7 160 9
154 7 202 13 212 28 19 30 -2 428 -32 600 l-12 68 -43 -2 c-104 -6 -215 126
-265 316 -16 65 -17 65 -100 54 -75 -9 -220 -25 -315 -35 -27 -2 -86 -9 -130
-14 -44 -5 -118 -12 -165 -15 -47 -4 -101 -9 -120 -11 -19 -3 -123 -11 -230
-19 -107 -8 -229 -19 -270 -25 -41 -6 -97 -13 -125 -16 -27 -3 -61 -7 -74 -9
-106 -18 -210 -23 -254 -11 -31 7 -51 47 -43 82 6 22 36 31 131 40 22 2 65 8
95 13 30 5 89 10 130 10 196 4 208 6 395 43 55 10 114 21 130 23 17 3 50 9 75
14 25 6 65 12 90 15 25 2 74 9 110 15 150 23 579 81 602 81 7 0 9 11 28 179
12 101 34 157 75 189 47 37 77 37 153 -3 98 -51 139 -88 152 -135 8 -31 14
-37 30 -33 11 3 20 6 21 7 0 0 6 37 14 81 13 81 33 177 61 296 8 36 16 72 18
80 9 48 24 85 69 173 34 66 52 113 53 143 2 24 0 41 -4 39 -4 -2 -9 27 -10 66
-1 39 -7 77 -13 85 -17 20 -18 111 -1 168 27 94 99 198 190 276 36 30 189 129
201 129 6 0 23 7 37 17 16 10 51 17 92 19 37 2 90 5 117 8 30 2 53 0 57 -7 5
-8 12 -6 25 5 12 11 29 14 52 11 22 -4 36 -1 42 8 7 12 10 11 21 -2 21 -27 47
-30 58 -9 10 19 12 19 38 3 15 -10 29 -20 32 -23 6 -6 32 -11 80 -14 19 -1 42
-6 50 -11 8 -5 25 -8 36 -7 14 2 36 -10 60 -32 22 -20 44 -36 49 -35 6 0 4 3
-2 6 -7 2 -13 9 -13 14 0 9 60 -17 70 -30 6 -8 97 -44 119 -47 8 -2 17 -8 21
-14 11 -18 61 -41 73 -33 7 4 8 0 4 -11 -5 -12 -3 -16 5 -13 28 9 112 -64 183
-158 84 -112 104 -160 110 -261 2 -40 11 -90 20 -111 44 -100 58 -147 50 -172
-4 -13 0 -23 12 -30 16 -9 14 -10 -10 -11 -16 0 -26 4 -23 9 4 5 -3 7 -14 4
-15 -4 -19 -2 -14 10 11 29 -115 79 -142 56 -8 -7 -18 -9 -21 -5 -4 4 -1 11 6
15 19 12 -10 26 -71 35 -27 4 -48 11 -48 16 0 5 -25 14 -56 21 -49 11 -59 10
-85 -5 -19 -11 -40 -16 -55 -12 -13 4 -24 2 -24 -3 0 -5 -9 -7 -20 -4 -11 3
-20 1 -20 -5 0 -6 -13 -19 -29 -28 -17 -10 -28 -21 -26 -25 3 -4 -7 -10 -22
-14 -19 -4 -23 -9 -14 -15 9 -5 12 -21 9 -46 -3 -22 -1 -46 3 -54 5 -8 15 -53
23 -99 23 -128 91 -245 136 -236 11 2 20 -1 20 -7 0 -5 6 -8 14 -5 8 3 32 -3
54 -13 53 -26 122 -42 162 -38 57 5 43 23 -32 42 -73 18 -118 47 -118 74 0 10
6 12 23 8 12 -4 49 -11 82 -16 80 -12 105 -20 105 -34 0 -21 65 -76 89 -76 13
0 45 -13 70 -29 l47 -28 1 40 c2 30 8 46 24 58 20 15 22 23 16 75 -3 33 -2 68
2 79 14 36 55 -169 56 -280 1 -119 -9 -162 -41 -193 -13 -13 -24 -29 -24 -37
0 -8 -4 -15 -10 -15 -5 0 -10 6 -10 13 0 8 -3 8 -9 -2 -6 -9 -6 -22 0 -33 8
-14 4 -26 -17 -54 -15 -19 -33 -33 -40 -30 -8 3 -22 -11 -35 -34 -22 -38 -39
-51 -39 -30 0 6 -5 10 -10 10 -7 0 -7 -6 -1 -19 8 -14 7 -22 -5 -32 -9 -7 -20
-24 -25 -37 -6 -15 -15 -22 -24 -18 -11 4 -15 -2 -15 -23 0 -23 6 -30 25 -35
14 -4 23 -11 20 -17 -5 -7 -11 -6 -20 1 -10 8 -12 1 -11 -35 1 -28 6 -45 14
-45 7 0 3 -9 -9 -21 -12 -12 -19 -29 -16 -40 3 -10 2 -17 -3 -14 -4 3 -11 -11
-14 -30 -4 -19 -12 -35 -18 -35 -5 0 -8 -6 -5 -14 8 -19 -18 -39 -40 -32 -10
3 -23 23 -30 43 -9 31 -9 35 1 21 7 -10 16 -18 20 -18 10 0 7 38 -4 45 -6 4
-8 10 -5 15 3 5 1 11 -5 15 -6 4 -8 11 -4 16 3 5 -5 19 -18 30 -15 13 -19 22
-11 25 7 3 9 12 6 20 -3 7 -9 11 -14 8 -5 -3 -7 -10 -4 -15 4 -5 2 -9 -3 -9
-6 0 -12 7 -16 15 -3 8 -10 15 -17 15 -6 0 -19 10 -28 22 -16 20 -48 18 -36
-2 3 -5 -5 -8 -17 -7 -24 2 -101 67 -80 67 7 0 12 13 12 30 0 17 4 30 9 30 15
0 24 40 11 55 -8 10 -8 14 2 18 9 4 8 6 -3 6 -21 1 -29 30 -29 102 0 43 5 60
19 73 24 22 37 74 22 89 -6 6 -11 30 -11 54 0 46 -18 65 -43 45 -7 -6 -34 -16
-61 -23 -39 -10 -50 -9 -56 2 -7 10 -16 11 -36 4 -15 -6 -26 -14 -25 -19 2 -5
-3 -13 -11 -17 -7 -5 -8 -9 -2 -9 14 0 16 -61 2 -77 -7 -9 -7 -13 2 -13 10 0
10 -3 0 -14 -16 -20 -42 -9 -35 15 15 46 -55 96 -112 80 -66 -19 -112 -57
-113 -93 0 -9 -6 -19 -13 -22 -16 -6 29 -46 54 -46 21 0 34 -16 19 -25 -5 -3
-10 -12 -10 -18 0 -7 4 -6 10 3 7 11 10 12 10 2 0 -8 -9 -16 -20 -19 -24 -6
-10 -23 38 -42 28 -12 36 -21 34 -42 0 -3 15 -25 34 -48 49 -63 46 -70 -34
-70 -51 0 -90 -8 -152 -30 -45 -17 -88 -35 -96 -42 -7 -6 -18 -8 -23 -5 -5 4
-13 2 -16 -4 -10 -16 -37 10 -30 29 4 12 2 12 -9 -2 -9 -11 -17 -14 -21 -8 -8
14 -46 -9 -38 -24 4 -5 3 -7 -1 -4 -4 4 -26 1 -49 -6 -32 -9 -44 -19 -52 -41
-5 -16 -14 -32 -20 -36 -6 -5 -2 -8 8 -8 17 0 17 -1 3 -16 -23 -23 -20 -37 7
-28 12 4 24 9 27 13 3 3 27 7 53 8 27 1 56 4 65 8 9 3 50 8 90 11 39 2 91 12
115 21 23 9 69 17 103 17 57 1 64 -2 103 -36 22 -21 45 -38 50 -38 5 0 16 11
25 25 11 17 26 25 46 25 29 0 33 -5 33 -40 0 -12 14 -16 65 -17 41 -2 71 -8
81 -17 9 -9 41 -20 70 -27 45 -9 137 -56 117 -60 -3 -1 -11 -2 -17 -3 -7 0
-13 -13 -15 -29 -3 -28 -19 -50 -44 -60 -12 -4 -11 -6 3 -6 9 -1 17 -5 17 -10
0 -5 -9 -7 -20 -4 -18 5 -20 2 -16 -32 5 -40 26 -74 26 -42 0 9 5 17 10 17 13
0 13 -13 -1 -27 -13 -13 -3 -36 12 -28 14 9 11 -13 -5 -27 -11 -11 -11 -14 1
-23 23 -17 -14 -100 -55 -125 -18 -11 -32 -25 -32 -32 0 -9 -3 -9 -11 -1 -11
11 -49 6 -49 -7 0 -17 -29 -18 -47 -1 -18 17 -63 23 -73 9 -3 -3 -18 -10 -33
-13 -22 -6 -26 -4 -21 9 4 11 1 16 -10 16 -10 0 -13 -6 -10 -15 4 -9 0 -15
-10 -15 -9 0 -16 -4 -16 -10 0 -5 -5 -10 -11 -10 -5 0 -7 5 -4 10 3 6 -1 10
-9 10 -9 0 -16 -5 -16 -11 0 -6 -8 -8 -19 -4 -11 3 -23 0 -27 -7 -13 -20 -12
-48 1 -48 7 0 13 -11 13 -25 0 -14 -4 -25 -9 -25 -5 0 -9 7 -9 15 0 8 -5 15
-11 15 -8 0 -10 14 -6 40 5 43 -9 64 -25 36 -11 -19 -39 -21 -56 -4 -9 9 -12
9 -12 -2 0 -9 -9 -5 -25 10 -21 20 -25 21 -25 6 0 -16 -1 -16 -16 -2 -17 18
-28 21 -19 6 3 -6 0 -13 -9 -16 -22 -8 -16 -45 6 -38 22 6 24 -11 3 -20 -8 -3
-21 3 -28 15 -25 35 -63 0 -72 -66 -2 -17 -4 -30 -5 -30 -1 0 -4 -17 -5 -38
-3 -33 -2 -37 11 -26 8 7 30 10 54 6 24 -3 41 -1 44 7 2 6 5 1 5 -11 1 -27 8
-28 35 -8 25 19 37 19 30 1 -3 -8 3 -16 15 -19 14 -3 18 -1 14 10 -4 11 -2 14
8 11 15 -5 13 -41 -2 -46 -5 -2 -9 -15 -9 -28 0 -22 2 -23 20 -12 11 7 20 20
20 29 0 9 7 19 15 23 22 8 19 -31 -2 -43 -17 -9 -17 -11 2 -28 20 -18 20 -18
-2 -40 -13 -12 -23 -19 -23 -15 0 5 5 13 10 18 11 11 3 44 -10 44 -4 0 -13 -7
-20 -15 -9 -10 -9 -15 -1 -15 6 0 11 -5 11 -12 0 -6 -9 -3 -21 8 -14 13 -20
14 -17 4 2 -8 -1 -14 -7 -15 -20 -1 -35 -17 -35 -37 0 -14 5 -18 15 -15 8 4
17 2 20 -4 4 -5 11 -6 17 -3 7 5 9 1 5 -9 -5 -13 -1 -15 22 -11 18 4 32 1 36
-7 6 -9 2 -11 -13 -7 -12 4 -25 2 -28 -4 -3 -5 -12 -7 -20 -4 -8 3 -14 1 -14
-4 0 -6 -7 -10 -16 -10 -12 0 -15 -6 -10 -25 5 -19 3 -25 -10 -25 -10 0 -15
-3 -11 -6 3 -4 18 -3 33 0 14 4 24 10 20 13 -8 8 14 34 24 28 4 -3 6 -21 3
-40 -5 -39 1 -43 31 -18 l21 18 -20 -24 c-14 -16 -16 -25 -8 -28 20 -7 2 -33
-23 -33 -13 0 -24 -4 -24 -10 0 -5 4 -10 10 -10 5 0 1 -23 -9 -51 -19 -48 -19
-50 -2 -35 10 10 22 31 26 49 4 18 9 26 12 19 4 -10 8 -10 19 -1 9 8 14 8 14
1 0 -6 -4 -13 -10 -17 -5 -3 -6 -15 0 -29 6 -17 4 -28 -7 -39 -14 -13 -14 -20
-3 -46 7 -17 16 -31 21 -31 5 0 4 -9 -3 -19 -6 -10 -18 -17 -25 -14 -18 7 -16
-12 2 -27 27 -22 -1 -118 -30 -106 -7 2 -18 -7 -24 -20 -14 -32 -14 -34 5 -34
11 0 14 -5 10 -16 -3 -9 -6 -18 -6 -20 0 -2 -6 -4 -13 -4 -9 0 -12 -10 -9 -30
3 -23 0 -30 -12 -30 -9 0 -16 -4 -16 -10 0 -5 -7 -7 -15 -4 -11 5 -13 2 -8
-12 4 -11 3 -15 -4 -11 -14 9 -24 -43 -12 -65 6 -11 5 -26 -2 -41 -10 -23 -13
-24 -29 -9 -11 8 -16 22 -12 31 5 14 4 14 -11 2 -32 -25 -6 -70 41 -71 13 0
21 -4 18 -8 -3 -5 -27 -5 -53 0 -26 5 -71 8 -99 8 -44 -1 -53 3 -68 25 -13 20
-25 25 -56 25 -36 0 -40 2 -40 26 0 22 -2 25 -15 14 -17 -14 -20 -40 -5 -40 6
0 8 -10 4 -24 -3 -14 0 -29 10 -39 25 -25 21 -57 -8 -57 -13 0 -26 -7 -30 -15
-3 -9 0 -15 9 -15 20 0 19 -17 0 -28 -13 -7 -14 -14 -5 -36 13 -35 13 -36 -3
-36 -8 0 -14 -7 -14 -15 0 -8 4 -15 8 -15 4 0 10 -16 14 -36 7 -38 -7 -59 -32
-49 -7 2 -13 0 -13 -6 0 -6 -14 -1 -30 11 -17 12 -35 20 -41 18 -17 -6 141
-85 224 -112 267 -86 493 -81 706 15 61 28 152 81 177 104 6 5 43 36 83 69 82
68 121 122 153 214 20 58 23 87 23 213 l0 146 23 -33 c26 -39 47 -45 39 -12
-12 55 -34 95 -66 123 -86 75 -91 81 -84 117 15 79 13 78 115 78 51 1 122 3
158 5 156 10 489 24 535 22 28 -1 103 2 167 6 64 4 350 9 635 12 515 4 719 11
784 24 36 7 130 -3 166 -19 48 -20 67 -117 30 -148 -6 -6 -91 -13 -187 -17
-96 -3 -186 -8 -200 -10 -38 -7 -163 -13 -390 -20 -113 -4 -227 -8 -255 -10
-327 -20 -447 -25 -730 -30 -181 -3 -375 -10 -430 -15 -55 -5 -130 -9 -167
-10 -37 0 -70 -5 -73 -10 -4 -6 -12 -8 -18 -4 -7 3 2 -5 18 -17 17 -13 46 -40
66 -61 20 -21 40 -38 44 -38 4 0 14 -8 21 -17 9 -12 13 -13 14 -5 0 7 -11 25
-25 40 -24 26 -33 48 -17 40 80 -37 335 -165 422 -211 63 -34 171 -88 240
-120 l125 -59 740 -4 c407 -2 745 -3 752 -4 6 0 25 -13 41 -30 55 -55 52 -155
-6 -179 -18 -8 -124 -11 -312 -10 -157 1 -370 1 -475 0 l-189 -1 39 -41 c22
-22 52 -47 67 -55 36 -19 137 -174 159 -244 9 -30 33 -90 53 -133 l35 -78 58
6 c32 3 157 7 279 8 238 2 255 -1 302 -53 18 -18 22 -32 18 -54 -3 -16 -6 -32
-6 -37 0 -5 -15 -16 -32 -25 -28 -14 -51 -16 -163 -10 -287 16 -413 18 -422 4
-4 -7 -9 -65 -9 -128 -3 -194 -21 -513 -33 -555 -6 -22 -11 -55 -11 -73 0 -18
-9 -51 -20 -73 -27 -52 -42 -129 -41 -211 1 -65 -19 -146 -55 -225 -7 -17 -14
-34 -14 -39 0 -4 -11 -21 -23 -38 -13 -17 -32 -48 -41 -68 -10 -20 -45 -66
-79 -102 -55 -57 -64 -63 -76 -49 -12 13 -12 16 0 24 8 5 17 9 22 9 4 0 7 11
7 25 0 13 7 28 17 33 21 13 10 42 -17 42 -11 0 -23 7 -26 15 -8 21 14 106 33
128 15 16 14 17 -5 17 l-22 0 19 53 c65 183 70 215 34 228 -17 6 -23 5 -23 -6
0 -8 -6 -15 -13 -15 -18 0 -98 -182 -112 -255 -1 -5 -3 -27 -3 -47 -2 -45 -9
-47 -48 -12 -29 25 -73 48 -81 41 -2 -2 5 -15 16 -28 34 -44 55 -170 32 -194
-5 -6 -11 -21 -13 -34 -4 -32 -22 -37 -35 -9 -20 45 -21 -15 -2 -78 17 -55 18
-60 2 -72 -9 -6 -25 -12 -35 -12 -10 0 -18 -7 -18 -15 0 -15 6 -21 53 -56 15
-11 27 -30 27 -41 0 -19 -4 -20 -46 -14 -26 3 -66 6 -90 6 -34 0 -42 3 -38 15
10 24 -30 18 -55 -9 l-22 -24 25 -6 c26 -6 100 -90 111 -126 6 -20 17 -20
1171 -20 l1164 0 0 2155 c0 1185 -4 2155 -8 2155 -5 0 -53 -7 -108 -15 -135
-19 -173 -23 -300 -30 -60 -3 -158 -10 -219 -15 -175 -15 -202 -14 -230 14
-39 39 -41 69 -8 118 16 24 40 48 54 55 26 13 354 27 651 28 l168 0 0 308 0
307 -22 -4 c-28 -6 -123 -14 -248 -21 -52 -3 -115 -8 -140 -10 -25 -2 -74 -7
-110 -10 -36 -4 -101 -11 -145 -16 -128 -15 -179 -12 -209 12 -39 30 -36 84 7
131 17 20 41 38 52 41 11 3 101 8 200 12 99 3 232 10 295 15 63 5 122 9 130 9
8 0 54 3 103 7 l87 7 0 303 c0 167 -3 304 -7 304 -8 -1 -130 -16 -193 -25 -19
-2 -118 -14 -220 -25 -102 -11 -221 -25 -265 -30 -44 -6 -97 -13 -117 -15 -29
-4 -43 0 -67 21 -40 34 -42 85 -6 135 l26 34 227 11 c212 11 499 30 567 39 17
2 36 4 43 4 9 1 12 72 12 322 0 194 -4 318 -9 314 -5 -3 -60 -12 -123 -20 -62
-8 -119 -17 -128 -20 -16 -5 -171 -27 -314 -45 -50 -6 -93 -13 -97 -15 -3 -3
-49 -8 -101 -11 l-95 -7 -21 28 c-28 35 -28 57 1 100 23 36 43 41 137 38 14
-1 61 5 105 12 44 8 118 16 165 20 47 3 137 13 200 21 63 9 131 17 150 20 19
2 51 6 70 8 19 3 41 5 48 5 9 1 12 67 12 297 l0 296 -32 -5 c-18 -3 -85 -13
-148 -22 -152 -21 -399 -60 -531 -84 -58 -10 -120 -16 -138 -13 -67 9 -84 93
-30 144 26 25 36 28 99 28 38 0 107 9 152 20 179 45 206 50 298 55 52 4 142
11 200 16 58 5 111 9 118 9 9 0 12 71 12 321 l0 320 -47 -6 c-27 -3 -68 -10
-93 -15 -25 -5 -63 -12 -85 -15 -22 -3 -60 -9 -85 -15 -25 -5 -99 -21 -165
-35 -66 -14 -160 -35 -208 -46 -151 -34 -170 -34 -200 -8 -33 31 -37 57 -12
102 21 40 47 50 124 48 26 0 109 10 186 24 77 13 169 27 205 30 36 4 83 10
105 15 22 5 69 11 105 15 36 4 87 11 114 16 27 5 50 9 52 9 2 0 4 148 4 330
l0 330 -32 -6 c-97 -16 -334 -68 -631 -139 -82 -19 -164 -35 -182 -35 -43 0
-65 22 -65 65 0 43 33 59 155 74 50 7 135 20 190 31 55 10 174 31 265 45 235
38 300 55 300 77 0 17 -53 18 -1294 18 l-1293 0 -199 -51 c-109 -28 -224 -57
-254 -64 -30 -7 -116 -29 -190 -49 -74 -20 -175 -46 -225 -60 -98 -26 -289
-74 -345 -86 -35 -8 -386 -98 -560 -143 -52 -14 -113 -28 -135 -31 -74 -12
-162 -35 -228 -60 -36 -13 -110 -34 -164 -47 -54 -12 -114 -25 -133 -30 -19
-4 -64 -15 -100 -23 -36 -8 -146 -36 -245 -61 -213 -55 -279 -72 -320 -78 -31
-5 -363 -87 -450 -111 -27 -8 -95 -24 -150 -36 -55 -12 -107 -25 -115 -28 -8
-2 -24 -6 -35 -8 -11 -2 -74 -15 -140 -29 -66 -14 -145 -31 -175 -37 -30 -5
-62 -12 -70 -16 -8 -3 -21 -4 -28 -3 -8 1 -20 -3 -28 -10 -7 -6 -20 -9 -28 -6
-8 3 -16 1 -18 -5 -3 -7 -17 -13 -34 -14 -29 -3 -69 -11 -69 -14 0 -1 -11 -3
-25 -5 -86 -14 -100 -15 -100 -4 0 8 -4 8 -13 0 -10 -8 -14 -7 -14 4 0 8 7 15
15 15 8 0 12 6 9 14 -5 14 19 29 48 31 6 1 24 8 40 17 17 8 42 15 58 14 15 -1
27 2 27 7 0 4 4 6 9 2 5 -3 12 -1 15 4 6 9 64 25 84 22 6 -1 12 3 12 9 0 6 12
8 31 5 19 -4 28 -2 24 5 -3 5 1 10 10 10 9 0 13 -5 10 -11 -5 -6 2 -6 16 2 47
24 59 29 71 29 7 0 42 11 78 24 36 13 85 30 110 36 25 7 59 16 75 21 17 5 68
18 115 30 47 12 92 25 101 30 9 4 27 10 40 13 13 2 62 13 109 24 47 11 105 25
130 30 55 13 249 69 270 78 8 4 20 8 25 8 6 1 26 7 46 14 21 7 59 17 85 22 27
5 67 14 89 20 22 6 60 15 85 20 25 4 63 15 85 24 49 19 406 106 455 111 89 9
183 28 275 57 55 17 116 34 135 39 19 4 62 15 95 24 33 9 94 25 135 35 41 10
149 37 240 60 91 23 172 43 180 45 8 2 65 17 125 34 61 17 175 44 255 61 356
75 423 68 -715 66 -555 -2 -1019 -5 -1030 -8 -11 -3 -27 -8 -35 -11 -49 -18
-83 -26 -90 -22 -5 3 -10 1 -12 -5 -1 -5 -22 -11 -45 -12 -24 -1 -43 -5 -43
-10 0 -5 -5 -6 -10 -3 -6 3 -10 2 -10 -4 0 -5 -19 -12 -42 -16 -24 -4 -69 -16
-102 -27 -32 -11 -69 -20 -82 -20 -13 0 -24 -4 -24 -9 0 -5 -12 -9 -27 -9 -16
0 -55 -10 -88 -21 -33 -11 -73 -22 -89 -24 -15 -3 -33 -8 -40 -13 -6 -5 -22
-12 -36 -15 -180 -41 -406 -106 -442 -127 -10 -6 -26 -10 -35 -10 -10 0 -54
-10 -98 -21 -44 -11 -93 -22 -110 -23 -16 -2 -37 -5 -45 -8 -8 -3 -30 -10 -47
-16 -21 -6 -35 -7 -39 -1 -3 6 -11 5 -20 -2 -11 -9 -14 -8 -14 9 0 15 9 21 35
26 20 4 33 11 30 17 -4 5 2 9 12 9 10 0 35 9 56 20 20 11 37 18 37 15 0 -3 14
2 30 10 17 9 40 13 50 10 11 -4 20 -2 20 3 0 10 59 29 111 36 18 3 47 11 63
19 16 9 35 13 42 10 8 -3 14 0 14 7 0 10 3 10 15 0 8 -7 15 -8 15 -3 0 6 19
13 41 16 23 3 45 11 49 18 4 6 12 9 17 6 6 -4 52 9 104 27 52 18 100 31 108
28 8 -3 11 0 7 7 -6 10 23 16 72 14 6 -1 12 3 12 9 0 5 4 6 10 3 5 -3 26 2 46
11 19 9 45 18 57 20 12 1 49 10 82 19 33 10 69 19 80 20 11 2 39 8 62 13 23 5
44 8 46 6 2 -2 21 5 43 16 39 19 32 19 -1833 20 l-1873 0 0 -4535z m7988 4232
c4 -36 -30 -51 -173 -77 -160 -28 -312 -59 -375 -75 -30 -8 -69 -17 -87 -20
-29 -5 -157 -34 -313 -72 -36 -8 -76 -17 -90 -20 -14 -2 -52 -10 -85 -18 -33
-8 -159 -35 -280 -60 -121 -25 -258 -55 -305 -66 -47 -12 -118 -28 -159 -35
-41 -8 -122 -25 -180 -38 -58 -14 -126 -28 -151 -31 -25 -4 -79 -15 -120 -26
-41 -11 -104 -27 -140 -35 -36 -8 -92 -21 -125 -29 -33 -8 -96 -22 -140 -30
-44 -9 -105 -22 -135 -30 -206 -52 -514 -120 -700 -155 -100 -18 -229 -48
-570 -132 -113 -27 -254 -60 -315 -73 -256 -54 -315 -67 -405 -90 -52 -13
-138 -38 -190 -55 -52 -18 -133 -38 -180 -46 -47 -7 -94 -15 -105 -18 -11 -2
-94 -21 -185 -41 -91 -20 -174 -39 -185 -42 -11 -2 -38 -6 -60 -9 -22 -2 -47
-6 -55 -8 -33 -7 -76 -18 -90 -23 -8 -4 -31 -7 -50 -8 -19 -1 -42 -5 -50 -8
-8 -4 -25 -8 -37 -10 -12 -2 -26 -6 -29 -10 -4 -4 -13 -2 -21 5 -11 9 -13 8
-11 -3 2 -9 -7 -15 -27 -17 -16 -2 -41 -7 -55 -12 -14 -5 -43 -12 -65 -14 -22
-3 -62 -12 -89 -21 -27 -8 -62 -15 -77 -15 -15 0 -29 -4 -31 -10 -1 -5 -36
-11 -77 -14 -65 -4 -75 -2 -94 17 l-21 22 -53 -52 c-61 -59 -101 -75 -204 -78
-36 -1 -71 -5 -77 -9 -6 -4 -21 -2 -32 4 -11 6 -20 7 -20 3 0 -4 -14 -9 -30
-10 -17 -1 -30 1 -30 5 0 18 33 53 46 48 8 -3 14 -1 14 3 0 5 -6 12 -12 14 -7
3 2 6 20 6 17 1 32 6 32 12 0 6 9 9 20 6 11 -3 20 -1 20 3 0 12 61 41 71 34 5
-3 9 0 9 5 0 6 21 11 50 11 28 0 50 4 50 9 0 4 25 7 55 6 54 -2 55 -2 55 25 0
22 5 27 28 29 57 5 128 4 165 -1 20 -3 37 -2 37 3 0 5 7 5 17 2 12 -5 14 -3 8
7 -5 8 -4 11 2 7 6 -4 44 2 84 12 41 10 101 21 134 25 63 7 74 10 193 51 39
13 72 22 72 18 0 -4 5 -2 12 5 7 7 20 12 30 12 10 0 44 9 76 21 31 11 66 22
77 23 32 4 215 56 275 78 30 11 64 22 75 24 11 2 52 15 90 29 39 14 122 32
185 41 130 17 180 28 370 79 272 73 400 104 511 124 215 40 234 44 244 51 9 7
168 40 260 54 17 3 64 14 105 25 107 28 385 95 470 112 25 5 99 22 165 38 66
17 192 44 280 61 88 18 163 34 167 36 4 3 117 27 250 54 134 27 275 56 313 65
58 13 158 33 335 68 45 9 173 36 245 52 82 19 437 91 480 99 172 29 271 48
325 60 179 41 439 95 470 98 48 5 94 -21 98 -55z m-6094 -260 c-3 -9 -15 -17
-25 -17 -11 0 -27 -4 -37 -9 -9 -5 -50 -15 -89 -22 -40 -7 -73 -16 -73 -21 0
-5 -8 -8 -17 -7 -10 2 -28 -2 -40 -9 -13 -7 -23 -10 -23 -6 0 3 -7 1 -15 -6
-20 -16 -150 -20 -150 -4 0 6 -8 19 -18 29 -18 17 -18 19 -1 28 10 6 61 10
113 11 53 1 99 5 103 11 4 5 23 9 42 9 20 0 36 4 36 8 0 4 11 8 24 8 13 0 26
6 29 13 4 9 7 9 18 0 10 -10 16 -10 28 1 37 33 109 20 95 -17z m-484 -93 c0
-2 -7 -4 -15 -4 -8 0 -15 4 -15 10 0 5 7 7 15 4 8 -4 15 -8 15 -10z m-212 -81
c4 -31 -43 -44 -62 -17 -18 23 0 45 34 41 17 -1 26 -9 28 -24z m6762 -258 c28
-15 35 -29 31 -65 -4 -28 -40 -47 -103 -54 -65 -7 -155 -24 -433 -81 -88 -18
-180 -36 -205 -40 -25 -4 -82 -16 -128 -26 -93 -21 -394 -76 -515 -93 -15 -2
-64 -16 -110 -30 -45 -14 -131 -32 -192 -40 -118 -17 -247 -39 -307 -54 -20
-6 -39 -7 -42 -4 -3 3 -27 -3 -52 -13 -26 -10 -73 -18 -105 -19 -31 -1 -55 -4
-52 -8 2 -5 -9 -8 -26 -8 -16 0 -32 4 -35 9 -3 4 -23 11 -44 15 -38 6 -82 40
-68 53 4 4 15 2 26 -5 12 -7 20 -8 22 -1 2 7 12 7 31 0 43 -17 31 -2 -15 19
-48 21 -45 23 52 40 36 6 101 18 145 26 44 9 96 18 115 20 19 3 60 11 90 19
60 15 291 58 435 80 50 8 158 27 240 44 83 16 233 44 335 61 102 18 226 41
275 52 50 11 124 26 165 34 41 7 149 29 240 48 194 41 193 40 230 21z m-6086
-102 c-4 -13 -11 -20 -20 -16 -8 3 -14 0 -14 -6 0 -6 -4 -11 -10 -11 -5 0 -7
7 -4 15 4 8 12 15 19 15 7 0 16 7 19 16 9 23 16 13 10 -13z m-67 -15 c-3 -8
-6 -5 -6 6 -1 11 2 17 5 13 3 -3 4 -12 1 -19z m-99 -12 c15 2 20 1 12 -2 -8
-4 -25 -16 -37 -27 -13 -12 -30 -17 -42 -14 -11 3 -22 0 -25 -7 -5 -11 -8 18
-3 31 3 11 37 15 37 5 0 -5 7 -9 15 -9 8 0 15 4 15 9 0 4 -5 8 -11 8 -5 0 -7
5 -3 12 5 8 9 8 11 1 2 -5 16 -8 31 -7z m-237 -40 c0 -21 0 -21 9 2 10 24 30
30 30 8 0 -8 3 -23 6 -33 4 -11 3 -14 -3 -7 -7 10 -43 12 -113 5 -13 -1 -13
-2 0 -11 9 -6 10 -10 3 -10 -6 0 -18 7 -26 15 -8 8 -17 12 -20 9 -3 -3 -3 4 0
16 4 16 8 18 14 8 6 -8 12 -9 17 -3 11 16 55 33 70 28 6 -3 12 -15 13 -27z
m109 9 c5 3 11 1 15 -4 3 -6 -4 -15 -15 -21 -18 -10 -20 -8 -19 17 0 15 3 22
6 15 2 -6 9 -10 13 -7z m3976 -321 c18 -15 18 -15 -6 -10 -14 3 -35 6 -48 6
-13 0 -20 4 -17 10 9 15 49 12 71 -6z m2426 -246 c28 -14 40 -46 31 -90 -5
-29 -43 -48 -93 -48 -14 0 -67 -7 -116 -15 -49 -8 -163 -26 -254 -41 -91 -14
-190 -32 -220 -39 -30 -7 -82 -16 -115 -19 -33 -4 -82 -11 -110 -16 -27 -6
-93 -17 -145 -24 -98 -15 -457 -77 -705 -121 -171 -31 -292 -37 -305 -15 -20
35 -39 54 -46 48 -4 -5 0 -16 8 -25 8 -10 15 -26 15 -35 0 -13 -4 -15 -19 -7
-10 5 -18 14 -18 18 0 5 -9 11 -20 14 -19 5 -38 52 -26 65 4 3 16 1 26 -6 17
-10 20 -10 20 3 0 8 4 15 9 15 5 0 7 9 4 19 -6 22 -15 20 197 51 74 11 191 29
260 40 333 51 541 83 603 91 37 5 125 18 195 29 70 11 141 22 157 25 76 12 96
15 190 31 55 9 156 27 225 39 145 27 216 30 252 13z m-4162 -68 c-32 -24 -40
-16 -10 10 13 11 26 18 29 14 3 -3 -5 -14 -19 -24z m-42 -18 c2 -7 -3 -12 -12
-12 -9 0 -16 7 -16 16 0 17 22 14 28 -4z m-145 -35 c-1 -15 -12 -49 -25 -75
-19 -39 -29 -48 -58 -53 -19 -4 -30 -8 -25 -9 9 -2 -91 -18 -225 -35 -30 -3
-64 -10 -75 -15 -34 -14 -95 -28 -255 -60 -85 -17 -168 -35 -185 -40 -16 -5
-46 -11 -65 -14 -36 -6 -42 -7 -120 -24 -25 -6 -65 -13 -90 -16 -53 -7 -124
-20 -235 -42 -44 -8 -105 -18 -135 -21 -30 -3 -59 -9 -65 -12 -5 -4 -26 -8
-45 -9 -19 -1 -57 -7 -85 -12 -27 -5 -66 -12 -85 -15 -72 -11 -167 -28 -240
-43 -41 -9 -97 -17 -125 -18 -27 -2 -52 -4 -55 -5 -20 -6 -49 7 -73 34 -16 18
-26 26 -22 20 3 -7 2 -13 -4 -13 -5 0 -9 9 -8 19 1 13 7 18 20 15 18 -3 18 -2
3 14 -15 17 -13 19 32 29 26 7 62 12 80 12 44 0 181 21 212 32 14 5 48 11 75
14 28 3 68 9 90 15 22 5 71 12 110 16 38 3 83 11 100 18 16 7 46 13 65 15 61
4 75 6 80 13 3 3 25 9 50 13 25 3 79 13 120 22 41 9 81 17 90 18 8 1 22 4 30
7 8 4 44 12 80 18 36 7 76 14 90 17 14 3 34 6 45 7 11 2 79 15 150 30 356 72
477 94 500 90 14 -2 25 0 25 5 0 16 185 71 230 68 21 -2 25 -7 23 -30z m-2310
-500 c-4 -7 -9 -3 -14 9 -7 17 -8 17 -8 1 -1 -10 -5 -15 -11 -12 -5 3 -10 -1
-10 -9 0 -9 -4 -16 -9 -16 -5 0 -11 -8 -13 -17 -6 -23 -88 -47 -131 -39 -18 3
-37 3 -41 -1 -12 -12 -130 -11 -138 0 -4 7 -12 6 -22 -3 -9 -7 -19 -10 -23 -6
-9 9 30 36 45 31 7 -3 15 2 18 10 3 7 12 11 20 8 9 -3 14 1 14 12 0 11 5 15
15 11 8 -3 15 -1 15 5 0 6 4 8 9 4 5 -3 12 -1 16 5 3 5 17 10 30 10 13 0 27 5
30 11 4 6 19 7 37 4 21 -5 28 -4 24 4 -10 15 7 14 22 -1 10 -10 17 -10 33 0
12 8 18 9 15 3 -15 -23 15 -19 40 6 l27 27 9 -23 c4 -13 5 -28 1 -34z m6689
-117 c40 -50 10 -130 -49 -130 -85 -1 -172 -11 -463 -54 -14 -3 -47 -7 -75
-11 -27 -3 -122 -19 -210 -35 -88 -15 -189 -31 -225 -35 -36 -4 -132 -17 -215
-30 -82 -13 -217 -33 -300 -45 -82 -11 -198 -30 -258 -41 -59 -11 -115 -18
-125 -15 -18 6 -55 66 -57 94 -1 9 -5 27 -9 38 -5 18 -2 23 21 30 15 4 42 9
58 10 29 2 58 6 275 39 52 8 154 21 225 30 72 9 157 20 190 26 33 5 107 14
164 19 57 5 156 19 220 29 114 20 308 49 386 58 22 3 99 16 170 29 160 28 251
27 277 -6z m-4762 -16 c0 -17 -67 -88 -105 -112 -11 -7 -6 -5 12 3 18 8 34 15
36 15 2 0 -2 -20 -10 -45 -15 -44 -29 -55 -78 -61 -11 -1 -33 -4 -50 -7 -16
-3 -57 -10 -90 -16 -33 -6 -109 -19 -170 -30 -60 -11 -130 -22 -156 -25 -25
-3 -52 -7 -60 -10 -7 -3 -34 -7 -59 -10 -25 -3 -79 -13 -120 -21 -41 -8 -167
-28 -280 -45 -113 -16 -263 -38 -335 -49 -71 -11 -150 -22 -175 -25 -25 -3
-56 -9 -70 -12 -42 -10 -90 -11 -90 -2 0 5 -5 6 -11 3 -13 -9 -79 22 -85 40
-3 8 -13 11 -22 8 -12 -4 -10 0 6 14 12 11 22 25 22 30 0 24 32 33 131 38 128
6 166 12 249 36 36 10 85 21 110 24 49 5 65 8 95 18 61 20 445 96 488 97 15 0
35 4 45 9 9 5 58 17 107 26 50 9 104 20 120 25 17 4 64 13 105 20 41 7 116 21
166 31 51 10 123 21 160 25 38 3 73 10 79 15 15 15 35 10 35 -7z m2274 -386
c5 -10 7 -10 12 -1 6 13 32 6 52 -13 17 -18 15 -24 -8 -24 -12 0 -17 5 -14 14
4 10 -1 12 -19 9 -14 -3 -29 2 -36 11 -8 9 -9 16 -3 16 6 0 13 -6 16 -12z
m-4330 -80 c-4 -7 -3 -8 4 -4 7 4 12 3 12 -2 0 -20 -29 -32 -71 -28 -24 2 -51
4 -61 5 -9 1 -15 8 -14 16 3 22 56 47 89 42 15 -2 27 1 27 7 0 6 5 3 11 -7 5
-9 7 -22 3 -29z m1927 -174 c12 -14 14 -14 25 1 17 22 34 11 34 -23 0 -20 3
-23 12 -14 13 13 29 16 26 5 -1 -5 1 -22 6 -39 10 -43 -9 -88 -34 -81 -11 3
-22 2 -25 -3 -3 -4 -51 -13 -107 -20 -198 -23 -334 -40 -473 -60 -77 -12 -158
-23 -180 -25 -22 -2 -83 -9 -135 -14 -89 -9 -411 -46 -490 -57 -19 -2 -62 -7
-95 -10 -33 -3 -68 -10 -78 -15 -9 -6 -22 -7 -26 -4 -5 3 -29 0 -54 -7 -24 -6
-52 -8 -63 -3 -10 4 -30 9 -43 11 -30 4 -30 4 -34 45 -2 23 4 40 17 53 12 12
21 15 23 9 3 -8 15 -7 41 3 20 8 98 21 172 29 131 14 191 23 315 46 33 6 78
14 100 16 22 2 85 13 140 23 55 10 138 24 185 30 141 18 471 70 540 85 36 8
82 16 103 19 21 2 41 7 44 10 12 11 41 6 54 -10z m4874 -59 c22 -8 39 -25 46
-42 12 -32 3 -97 -16 -113 -8 -6 -51 -13 -97 -16 -119 -7 -245 -19 -473 -48
-110 -13 -274 -32 -365 -41 -169 -17 -181 -18 -310 -35 -73 -9 -303 -34 -425
-45 -33 -3 -87 -10 -120 -15 -33 -5 -102 -14 -154 -20 -88 -11 -95 -11 -104 6
-6 11 -28 36 -49 57 -39 37 -42 63 -8 54 12 -3 17 0 14 7 -6 15 53 59 67 51 5
-4 15 -2 22 3 13 11 54 19 142 26 114 10 470 47 535 56 36 5 112 12 170 16 58
3 108 8 111 10 3 2 98 12 210 24 235 23 287 29 349 35 25 3 70 8 100 11 115
11 192 23 198 28 11 12 124 6 157 -9z m-6795 -226 c0 -5 6 -9 13 -9 8 0 22 -9
32 -20 18 -19 17 -21 0 -54 -26 -48 -97 -66 -330 -81 -55 -4 -120 -11 -145
-17 -40 -8 -108 -15 -335 -33 -141 -12 -144 -11 -142 22 2 22 11 32 50 51 26
13 52 20 57 17 6 -3 10 -1 10 5 0 6 4 9 9 6 4 -3 34 1 65 9 31 8 79 17 108 20
110 10 213 28 338 61 137 35 270 46 270 23z m6809 -525 c35 -14 39 -19 45 -60
11 -82 -18 -104 -137 -104 -71 0 -241 -15 -527 -45 -225 -24 -419 -44 -490
-50 -36 -3 -78 -8 -93 -11 -16 -2 -58 -6 -95 -9 -37 -2 -87 -6 -112 -9 -25 -3
-182 -20 -350 -36 -168 -17 -322 -33 -342 -36 l-37 -7 19 70 c32 116 36 123
70 124 16 1 33 2 38 3 4 1 66 5 137 10 72 4 162 11 200 16 73 9 140 15 290 25
98 7 332 29 460 45 44 5 105 12 135 15 30 3 75 7 100 10 51 5 405 43 490 52
30 3 57 7 59 9 11 10 105 2 140 -12z m-2945 -10 c9 -3 16 -12 16 -20 0 -8 6
-11 15 -8 9 4 15 0 15 -9 0 -12 -8 -13 -47 -4 -60 13 -62 15 -39 33 23 16 20
16 40 8z m763 -208 c-4 -9 -13 -16 -22 -16 -18 0 -19 5 -4 32 13 24 35 9 26
-16z m33 -126 c0 -11 -7 -20 -15 -20 -13 0 -14 4 -5 20 6 11 13 20 15 20 3 0
5 -9 5 -20z m-2412 -49 c16 -9 72 -117 72 -137 0 -7 -4 -15 -9 -19 -16 -9
-244 -32 -441 -45 -102 -6 -207 -13 -235 -16 -27 -2 -135 -7 -240 -10 -104 -2
-226 -9 -270 -15 -70 -8 -208 -16 -615 -34 -58 -3 -121 -7 -140 -10 -44 -5
-110 14 -110 32 0 8 -4 12 -9 9 -16 -10 2 38 18 51 9 7 36 13 61 13 25 0 63 4
85 9 55 13 124 19 625 55 118 9 249 22 290 30 89 17 135 23 250 31 47 3 99 8
115 10 47 6 319 34 425 44 52 4 100 9 105 9 6 1 16 -2 23 -7z m2368 -28 c-7
-17 -8 -17 -17 0 -12 21 -2 44 13 29 6 -6 8 -19 4 -29z m2191 -334 c35 -11 55
-52 49 -100 -6 -53 -10 -54 -236 -64 -74 -4 -151 -8 -170 -10 -69 -6 -367 -24
-500 -31 -74 -3 -138 -8 -141 -9 -3 -2 -55 -7 -115 -10 -104 -5 -171 -9 -314
-20 -196 -15 -518 -36 -685 -45 -104 -6 -228 -15 -274 -19 -67 -6 -84 -4 -88
7 -8 20 5 154 15 164 11 11 43 14 242 22 80 4 172 8 205 11 33 2 123 7 200 10
77 3 214 10 305 16 91 5 208 11 260 14 52 3 127 8 165 10 39 3 108 8 155 10
47 3 119 7 160 10 41 3 116 7 165 10 101 6 154 10 335 25 69 7 126 13 128 14
5 6 108 -6 139 -15z m-2922 -79 c3 -5 1 -10 -4 -10 -6 0 -11 5 -11 10 0 6 2
10 4 10 3 0 8 -4 11 -10z m-385 -30 c0 -5 -5 -10 -11 -10 -5 0 -7 5 -4 10 3 6
8 10 11 10 2 0 4 -4 4 -10z m110 -30 c0 -5 -5 -10 -11 -10 -5 0 -7 5 -4 10 3
6 8 10 11 10 2 0 4 -4 4 -10z m-140 -24 c0 -3 -7 -12 -16 -20 -16 -17 -34 -13
-34 7 0 7 4 6 10 -3 8 -12 10 -12 16 3 5 15 24 25 24 13z m-104 -35 c-4 -5 0
-12 6 -14 8 -3 6 -6 -4 -6 -18 -1 -24 10 -11 22 9 10 15 8 9 -2z m76 -26 c7 4
4 -1 -6 -9 -16 -13 -22 -13 -28 -3 -5 8 -8 7 -8 -5 0 -10 -5 -18 -11 -18 -7 0
-9 8 -4 23 3 12 7 28 7 36 1 9 7 7 19 -8 11 -13 24 -20 31 -16z m98 21 c0 -3
-4 -8 -10 -11 -5 -3 -10 -1 -10 4 0 6 5 11 10 11 6 0 10 -2 10 -4z m133 -36
c-3 -11 -9 -17 -14 -14 -14 8 -10 34 5 34 9 0 12 -7 9 -20z m132 -10 c3 -5 1
-10 -4 -10 -6 0 -11 5 -11 10 0 6 2 10 4 10 3 0 8 -4 11 -10z m-371 -25 c-4
-8 -8 -15 -10 -15 -2 0 -4 7 -4 15 0 8 4 15 10 15 5 0 7 -7 4 -15z m311 -115
c3 -5 1 -10 -4 -10 -6 0 -11 5 -11 10 0 6 2 10 4 10 3 0 8 -4 11 -10z m-165
-170 c0 -5 -5 -10 -11 -10 -5 0 -7 5 -4 10 3 6 8 10 11 10 2 0 4 -4 4 -10z
m3983 -160 c112 -10 207 -37 207 -61 0 -20 -66 -67 -108 -77 -85 -21 -284 -41
-453 -46 l-166 -5 -26 27 c-35 38 -38 73 -9 111 46 61 34 59 243 60 107 1 247
-3 312 -9z m-3993 -390 c0 -5 -4 -10 -10 -10 -5 0 -10 5 -10 10 0 6 5 10 10
10 6 0 10 -4 10 -10z m-105 -193 c1 -7 7 -11 15 -9 12 3 13 1 2 -9 -10 -11
-15 -10 -28 3 -9 9 -13 21 -9 28 8 13 20 5 20 -13z m-275 -77 c0 -5 -5 -10
-11 -10 -5 0 -7 5 -4 10 3 6 8 10 11 10 2 0 4 -4 4 -10z m-26 -15 c3 -8 1 -15
-4 -15 -6 0 -10 7 -10 15 0 8 2 15 4 15 2 0 6 -7 10 -15z m96 -55 c0 -5 -4
-10 -10 -10 -5 0 -10 5 -10 10 0 6 5 10 10 10 6 0 10 -4 10 -10z m4010 -16
c46 -4 82 -9 145 -19 6 -1 26 -3 46 -3 20 -1 56 -15 82 -32 41 -25 46 -33 38
-49 -18 -33 -112 -69 -197 -76 -44 -4 -86 -8 -94 -10 -8 -3 -62 -7 -119 -10
-92 -5 -107 -3 -136 15 -51 31 -54 68 -14 135 18 30 40 56 48 59 15 4 78 1
201 -10z m-60 -749 c85 -11 152 -45 187 -95 12 -17 10 -21 -16 -36 -17 -10
-28 -21 -25 -26 3 -4 -8 -10 -23 -14 -15 -3 -41 -12 -58 -19 -16 -7 -59 -16
-95 -20 -36 -3 -77 -8 -93 -11 -22 -5 -34 1 -57 26 -40 42 -38 77 5 144 34 54
59 68 105 60 8 -1 40 -6 70 -9z m-539 -735 c132 -9 171 -24 188 -71 18 -53 14
-88 -16 -116 -27 -24 -31 -25 -113 -18 -47 3 -97 8 -111 9 -41 6 -260 18 -311
17 -30 0 -53 6 -63 15 -18 19 -21 121 -3 159 l12 26 150 -6 c83 -4 203 -10
267 -15z m-466 -428 c-13 -107 -32 -110 -27 -4 3 58 6 70 19 65 12 -5 14 -17
8 -61z m145 -333 c41 -6 129 -9 196 -6 154 6 218 -4 250 -38 26 -28 27 -48 3
-82 -13 -19 -25 -22 -89 -23 -74 -1 -149 4 -264 19 -77 11 -197 3 -214 -13 -8
-8 -14 -48 -16 -107 -6 -131 -16 -197 -33 -211 -12 -10 -13 -4 -7 40 6 44 4
52 -10 52 -27 0 -28 43 -3 166 14 65 28 136 31 156 8 47 32 72 60 64 12 -4 55
-11 96 -17z"/>
<path d="M1871 8524 c0 -11 3 -14 6 -6 3 7 2 16 -1 19 -3 4 -6 -2 -5 -13z"/>
<path d="M2390 8649 c0 -5 5 -7 10 -4 6 3 10 8 10 11 0 2 -4 4 -10 4 -5 0 -10
-5 -10 -11z"/>
<path d="M4401 6391 c-7 -5 -47 -9 -88 -10 -41 -1 -80 -4 -85 -7 -12 -8 -71
-23 -107 -29 -14 -2 -28 -11 -33 -19 -5 -9 -17 -16 -26 -16 -9 -1 -28 -7 -42
-16 -23 -14 -23 -14 -2 -9 27 8 29 -6 2 -23 -11 -7 -20 -18 -21 -25 0 -12 -77
-73 -105 -84 -8 -3 -14 -9 -14 -14 0 -6 7 -6 18 0 22 12 62 3 62 -13 0 -8 12
-11 35 -8 27 3 35 1 35 -12 0 -9 8 -16 18 -17 10 0 12 -3 5 -6 -7 -2 -13 -11
-13 -19 0 -9 -4 -13 -9 -9 -5 3 -12 1 -16 -5 -4 -6 -11 -8 -16 -5 -5 4 -9 -3
-9 -14 0 -12 -4 -21 -10 -21 -5 0 -10 -5 -10 -11 0 -6 -6 -17 -14 -24 -19 -19
-1 -92 25 -106 18 -9 65 -1 119 19 26 10 310 11 316 1 8 -13 -37 -28 -122 -40
-41 -6 -71 -15 -68 -20 8 -14 111 -10 179 5 33 8 78 14 100 15 68 2 95 8 118
27 77 66 112 134 102 200 -3 24 -10 46 -16 49 -5 4 -7 11 -4 16 4 5 1 9 -6 9
-7 0 -9 3 -6 6 3 4 1 16 -5 27 -8 16 -7 23 6 33 27 20 22 105 -5 88 -6 -3 -13
4 -16 15 -4 16 -11 20 -24 16 -11 -4 -19 -2 -19 4 0 6 -3 10 -7 9 -18 -3 -62
15 -67 28 -3 8 -10 14 -16 14 -6 0 -8 -4 -5 -10 7 -11 -8 -14 -18 -3 -4 3 -17
7 -30 8 -12 1 -33 5 -47 9 -14 3 -31 2 -39 -3z m-292 -260 c11 -7 9 -10 -8
-16 -22 -7 -41 0 -41 16 0 11 30 12 49 0z m196 -77 c-36 -16 -65 -18 -65 -5 0
13 20 19 60 18 l35 0 -30 -13z m139 -89 c3 -9 0 -15 -9 -15 -9 0 -12 6 -9 15
4 8 7 15 9 15 2 0 5 -7 9 -15z"/>
<path d="M5620 6216 c0 -2 7 -7 16 -10 8 -3 12 -2 9 4 -6 10 -25 14 -25 6z"/>
<path d="M4168 5833 c7 -3 16 -2 19 1 4 3 -2 6 -13 5 -11 0 -14 -3 -6 -6z"/>
<path d="M3245 5658 c-32 -29 -44 -79 -45 -188 0 -74 31 -264 46 -279 2 -2 5
36 5 85 1 49 3 98 4 109 14 124 44 215 81 244 l25 19 -23 16 c-31 22 -62 20
-93 -6z"/>
<path d="M3421 5425 c-17 -20 -31 -40 -31 -46 0 -5 -9 -20 -20 -32 -29 -31
-51 -78 -45 -96 8 -24 52 -42 59 -25 3 8 12 14 19 14 8 0 20 7 27 15 9 11 16
12 26 4 21 -17 37 0 30 33 -4 18 0 43 10 64 15 32 15 35 -6 69 -12 19 -25 35
-30 35 -4 0 -22 -16 -39 -35z m49 -110 c0 -8 -4 -15 -10 -15 -5 0 -10 7 -10
15 0 8 5 15 10 15 6 0 10 -7 10 -15z"/>
<path d="M3376 5146 c3 -9 11 -16 16 -16 13 0 5 23 -10 28 -7 2 -10 -2 -6 -12z"/>
<path d="M3569 4885 c-16 -43 -16 -45 2 -45 22 0 36 42 23 71 -8 17 -11 13
-25 -26z"/>
<path d="M4290 4850 c-13 -8 -13 -10 2 -10 9 0 20 5 23 10 8 13 -5 13 -25 0z"/>
<path d="M4280 4809 c0 -5 5 -7 10 -4 6 3 10 8 10 11 0 2 -4 4 -10 4 -5 0 -10
-5 -10 -11z"/>
<path d="M4794 4808 c-3 -5 -14 -6 -25 -3 -11 4 -19 2 -19 -4 0 -6 6 -11 13
-12 6 0 3 -4 -7 -8 -20 -8 -30 -62 -11 -59 13 2 45 -12 64 -26 7 -6 19 -11 25
-11 6 -1 36 -5 67 -9 31 -4 83 -9 115 -10 55 -1 60 1 72 27 12 24 11 31 -2 52
-15 23 -15 25 4 35 29 15 27 43 -2 34 -13 -4 -26 -11 -30 -17 -4 -7 -11 -7
-21 1 -10 8 -23 9 -38 4 -13 -5 -30 -7 -36 -5 -7 3 -13 -1 -13 -9 0 -8 -3 -9
-8 -3 -4 6 -14 10 -22 10 -8 0 -18 -4 -22 -10 -4 -6 -8 -2 -8 8 0 15 -3 16
-20 7 -11 -6 -20 -7 -20 -2 0 13 -49 22 -56 10z m224 -57 c-10 -14 -18 -17
-28 -10 -13 7 -12 9 1 9 9 0 20 7 23 16 4 9 9 14 12 11 3 -3 0 -15 -8 -26z
m-248 15 c0 -3 -4 -8 -10 -11 -5 -3 -10 -1 -10 4 0 6 5 11 10 11 6 0 10 -2 10
-4z"/>
<path d="M3880 4698 c0 -4 4 -18 10 -32 7 -19 6 -29 -5 -40 -8 -8 -15 -21 -15
-28 1 -19 40 31 40 51 0 16 -29 64 -30 49z"/>
<path d="M5235 4560 c-3 -5 1 -10 9 -10 9 0 16 5 16 10 0 6 -4 10 -9 10 -6 0
-13 -4 -16 -10z"/>
<path d="M5200 4390 c0 -5 5 -10 11 -10 5 0 7 5 4 10 -3 6 -8 10 -11 10 -2 0
-4 -4 -4 -10z"/>
<path d="M4280 4314 c0 -8 5 -12 10 -9 6 3 10 10 10 16 0 5 -4 9 -10 9 -5 0
-10 -7 -10 -16z"/>
<path d="M4304 4280 c-12 -4 -24 -15 -27 -24 -5 -12 1 -11 23 6 40 29 41 33 4
18z"/>
<path d="M4405 4258 c-19 -22 -19 -22 -1 -8 18 14 19 13 13 -4 -6 -15 -5 -17
7 -7 11 9 15 9 18 -1 3 -8 10 -3 18 12 10 20 10 23 0 13 -11 -10 -16 -9 -25 3
-9 13 -13 12 -30 -8z"/>
<path d="M4306 4253 c-11 -11 -6 -23 8 -23 8 0 17 4 20 9 7 10 -19 23 -28 14z"/>
<path d="M4329 4228 c-3 -11 -5 -48 -3 -48 11 0 23 40 14 45 -5 3 -10 5 -11 3z"/>
<path d="M4482 4215 c-11 -12 -10 -15 3 -15 8 0 15 7 15 15 0 18 -2 18 -18 0z"/>
<path d="M4370 4210 c-8 -5 -12 -12 -9 -15 4 -3 12 1 19 10 14 17 11 19 -10 5z"/>
<path d="M4506 4196 c-3 -13 -9 -32 -12 -43 -5 -17 -5 -17 9 -1 8 10 17 15 20
11 4 -3 7 5 7 20 0 34 -16 43 -24 13z"/>
<path d="M4276 4194 c-4 -9 1 -14 14 -14 23 0 27 15 6 23 -8 3 -17 -1 -20 -9z"/>
<path d="M4198 4193 c7 -3 16 -2 19 1 4 3 -2 6 -13 5 -11 0 -14 -3 -6 -6z"/>
<path d="M4475 4180 c-3 -5 -1 -10 4 -10 6 0 11 5 11 10 0 6 -2 10 -4 10 -3 0
-8 -4 -11 -10z"/>
<path d="M4140 4161 c0 -5 7 -11 14 -14 10 -4 13 -1 9 9 -6 15 -23 19 -23 5z"/>
<path d="M4324 4154 c-18 -14 -18 -15 6 -8 22 6 23 5 12 -9 -11 -13 -11 -19 0
-36 7 -12 21 -21 31 -21 10 0 15 -5 12 -10 -4 -6 -10 -8 -14 -6 -4 3 -8 -1 -8
-9 0 -8 4 -12 9 -9 4 3 8 1 8 -4 0 -6 14 -15 32 -21 24 -9 33 -8 39 1 5 8 2
15 -9 19 -15 5 -14 7 6 13 12 4 22 12 22 19 0 8 -3 8 -11 0 -6 -6 -17 -9 -24
-7 -7 3 -16 1 -20 -5 -3 -6 -11 -11 -17 -11 -7 0 -7 4 0 13 5 6 12 21 14 32 1
11 15 25 31 32 15 7 27 17 27 23 0 6 -4 8 -10 5 -5 -3 -10 -2 -10 4 0 6 -7 8
-15 5 -13 -5 -28 -35 -30 -59 0 -5 -9 -11 -20 -13 -12 -2 -16 0 -9 5 6 4 14
18 18 30 5 16 2 25 -13 32 -26 14 -34 14 -57 -5z"/>
<path d="M4066 4145 c5 -11 11 -12 25 -4 26 13 24 19 -6 19 -17 0 -23 -4 -19
-15z"/>
<path d="M4230 4150 c0 -5 5 -10 11 -10 5 0 7 5 4 10 -3 6 -8 10 -11 10 -2 0
-4 -4 -4 -10z"/>
<path d="M4493 4127 c-29 -13 -31 -37 -2 -30 19 5 37 29 28 37 -2 2 -14 -1
-26 -7z"/>
<path d="M4246 4116 c3 -8 12 -12 20 -9 21 8 17 23 -6 23 -13 0 -18 -5 -14
-14z"/>
<path d="M4498 4052 c-3 -10 -3 -32 -1 -49 4 -24 9 -30 24 -26 10 3 19 10 19
15 0 5 -4 7 -9 4 -11 -7 -25 49 -16 64 3 5 2 10 -3 10 -5 0 -12 -8 -14 -18z"/>
<path d="M4624 4048 c-5 -8 10 -12 34 -9 17 3 15 -16 -3 -23 -8 -3 -15 -1 -15
5 0 15 -18 1 -31 -23 -9 -16 -8 -19 2 -12 8 4 22 9 33 9 26 2 48 33 34 49 -13
13 -47 16 -54 4z"/>
<path d="M4305 4040 c4 -6 11 -8 16 -5 14 9 11 15 -7 15 -8 0 -12 -5 -9 -10z"/>
<path d="M4525 4040 c-3 -5 -1 -10 4 -10 6 0 11 5 11 10 0 6 -2 10 -4 10 -3 0
-8 -4 -11 -10z"/>
<path d="M4170 4000 c0 -6 -10 -15 -22 -20 -19 -7 -20 -9 -5 -9 10 -1 25 5 33
13 16 17 18 26 4 26 -5 0 -10 -5 -10 -10z"/>
<path d="M4470 3999 c0 -5 5 -7 10 -4 6 3 10 8 10 11 0 2 -4 4 -10 4 -5 0 -10
-5 -10 -11z"/>
<path d="M4557 3993 c-13 -13 -7 -21 13 -16 11 3 20 9 20 14 0 10 -24 12 -33
2z"/>
<path d="M3962 3961 c1 -26 3 -28 19 -18 21 13 25 27 8 27 -5 0 -7 5 -4 10 3
6 -1 10 -9 10 -10 0 -14 -10 -14 -29z"/>
<path d="M4657 3983 c-4 -3 -7 -11 -7 -17 0 -6 5 -5 12 2 6 6 9 14 7 17 -3 3
-9 2 -12 -2z"/>
<path d="M4576 3951 c-12 -13 -14 -21 -6 -26 14 -8 15 -7 24 23 9 27 4 28 -18
3z"/>
<path d="M4620 3954 c0 -8 5 -12 10 -9 6 3 10 10 10 16 0 5 -4 9 -10 9 -5 0
-10 -7 -10 -16z"/>
<path d="M4680 3960 c-9 -6 -10 -10 -3 -10 6 0 15 5 18 10 8 12 4 12 -15 0z"/>
<path d="M4173 3935 c-10 -11 -9 -15 8 -20 11 -4 23 -4 26 -1 4 3 1 6 -5 6 -6
0 -9 7 -6 15 8 19 -7 19 -23 0z"/>
<path d="M4120 3919 c0 -5 5 -7 10 -4 6 3 10 8 10 11 0 2 -4 4 -10 4 -5 0 -10
-5 -10 -11z"/>
<path d="M4656 3905 c-3 -8 -1 -15 4 -15 6 0 10 7 10 15 0 8 -2 15 -4 15 -2 0
-6 -7 -10 -15z"/>
<path d="M4600 3900 c0 -5 9 -10 20 -10 11 0 20 5 20 10 0 6 -9 10 -20 10 -11
0 -20 -4 -20 -10z"/>
<path d="M3948 3883 c7 -3 16 -2 19 1 4 3 -2 6 -13 5 -11 0 -14 -3 -6 -6z"/>
<path d="M3517 3799 c-45 -26 -60 -127 -36 -241 29 -132 172 -397 273 -503 26
-27 38 -36 26 -20 -122 168 -156 219 -181 275 -91 197 -84 173 -84 299 0 91 4
123 18 148 27 50 22 64 -16 42z"/>
<path d="M4095 3800 c-7 -12 -7 -12 22 -15 14 -1 20 2 16 11 -6 16 -29 18 -38
4z"/>
<path d="M4702 3745 c-10 -21 -9 -25 3 -25 8 0 15 4 15 9 0 5 3 16 6 25 10 26
-12 18 -24 -9z"/>
<path d="M4035 3670 c3 -5 11 -10 16 -10 6 0 7 5 4 10 -3 6 -11 10 -16 10 -6
0 -7 -4 -4 -10z"/>
<path d="M4710 3630 c-6 -11 -8 -20 -6 -20 3 0 10 9 16 20 6 11 8 20 6 20 -3
0 -10 -9 -16 -20z"/>
<path d="M4140 3600 c0 -5 6 -10 14 -10 8 0 23 -3 33 -6 16 -5 16 -4 -1 10
-22 18 -46 21 -46 6z"/>
<path d="M4755 3590 c-3 -5 -1 -10 4 -10 6 0 11 5 11 10 0 6 -2 10 -4 10 -3 0
-8 -4 -11 -10z"/>
<path d="M4720 3369 c0 -5 5 -7 10 -4 6 3 10 8 10 11 0 2 -4 4 -10 4 -5 0 -10
-5 -10 -11z"/>
<path d="M4160 3336 c0 -28 12 -46 31 -46 28 0 36 30 14 46 -24 18 -45 18 -45
0z"/>
<path d="M4230 3245 c0 -8 2 -15 4 -15 2 0 6 7 10 15 3 8 1 15 -4 15 -6 0 -10
-7 -10 -15z"/>
<path d="M4244 3194 c3 -9 6 -18 6 -20 0 -2 6 -4 14 -4 9 0 12 7 9 20 -3 11
-12 20 -20 20 -10 0 -13 -6 -9 -16z"/>
<path d="M4300 3166 c0 -2 6 -9 14 -15 11 -9 16 -9 22 0 4 8 3 9 -4 5 -7 -4
-12 -2 -12 3 0 6 -4 11 -10 11 -5 0 -10 -2 -10 -4z"/>
<path d="M4250 3141 c0 -10 19 -25 25 -20 1 2 -3 10 -11 17 -8 7 -14 8 -14 3z"/>
<path d="M4342 3128 c3 -7 13 -15 24 -17 10 -2 22 -8 26 -15 5 -8 8 -7 8 2 0
19 -25 42 -45 42 -9 0 -15 -6 -13 -12z"/>
<path d="M4234 3088 c-7 -11 -1 -19 18 -22 7 -1 18 -5 24 -9 7 -4 18 1 25 10
12 14 11 15 -9 9 -16 -5 -22 -3 -22 7 0 15 -28 19 -36 5z"/>
<path d="M4503 3067 c2 -13 17 -27 29 -27 4 0 5 6 2 14 -7 18 -35 30 -31 13z"/>
<path d="M4385 3050 c3 -5 8 -10 11 -10 2 0 4 5 4 10 0 6 -5 10 -11 10 -5 0
-7 -4 -4 -10z"/>
<path d="M4618 3043 c7 -3 16 -2 19 1 4 3 -2 6 -13 5 -11 0 -14 -3 -6 -6z"/>
<path d="M4250 3000 c0 -5 5 -10 11 -10 5 0 7 5 4 10 -3 6 -8 10 -11 10 -2 0
-4 -4 -4 -10z"/>
<path d="M4162 2945 c0 -16 2 -22 5 -12 2 9 2 23 0 30 -3 6 -5 -1 -5 -18z"/>
<path d="M4285 2960 c-3 -5 -1 -10 4 -10 6 0 11 5 11 10 0 6 -2 10 -4 10 -3 0
-8 -4 -11 -10z"/>
<path d="M4215 2950 c3 -5 8 -10 11 -10 2 0 4 5 4 10 0 6 -5 10 -11 10 -5 0
-7 -4 -4 -10z"/>
<path d="M4185 2940 c-3 -5 -1 -10 4 -10 6 0 11 5 11 10 0 6 -2 10 -4 10 -3 0
-8 -4 -11 -10z"/>
<path d="M4115 2910 c-3 -6 1 -7 9 -4 18 7 21 14 7 14 -6 0 -13 -4 -16 -10z"/>
<path d="M4250 2820 c-9 -6 -10 -10 -3 -10 6 0 15 5 18 10 8 12 4 12 -15 0z"/>
<path d="M4240 2739 c0 -5 5 -7 10 -4 6 3 10 8 10 11 0 2 -4 4 -10 4 -5 0 -10
-5 -10 -11z"/>
<path d="M4167 2733 c-4 -3 -7 -11 -7 -17 0 -6 5 -5 12 2 6 6 9 14 7 17 -3 3
-9 2 -12 -2z"/>
<path d="M1690 1790 c0 -5 5 -10 11 -10 5 0 7 5 4 10 -3 6 -8 10 -11 10 -2 0
-4 -4 -4 -10z"/>
<path d="M7412 1765 c0 -16 2 -22 5 -12 2 9 2 23 0 30 -3 6 -5 -1 -5 -18z"/>
<path d="M7222 1735 c-10 -35 -30 -127 -46 -205 -2 -14 -9 -38 -15 -55 -6 -16
-15 -57 -20 -90 -6 -33 -12 -73 -16 -90 -5 -29 -5 -29 6 -5 37 83 59 141 59
160 0 8 7 29 16 45 19 34 45 146 46 190 0 17 -4 44 -10 60 l-9 30 -11 -40z"/>
<path d="M1726 1735 c-3 -9 0 -15 9 -15 19 0 19 -14 0 -30 -8 -7 -21 -26 -30
-43 -17 -34 -20 -50 -5 -27 8 13 10 13 10 -2 0 -9 -5 -20 -10 -23 -7 -4 -5
-14 5 -27 11 -17 12 -25 3 -36 -9 -10 -13 -95 -14 -291 -2 -325 7 -445 36
-476 14 -14 18 -28 14 -40 -5 -13 -4 -16 4 -11 8 5 12 -1 12 -17 0 -27 -20
-40 -47 -30 -17 5 -17 5 -1 -12 14 -15 20 -16 33 -5 8 7 17 11 18 9 7 -10 27
-61 27 -68 0 -12 -36 -51 -46 -51 -21 0 -38 -50 -41 -122 l-4 -78 37 0 37 0
-24 -19 c-44 -34 -86 -50 -161 -62 -40 -7 -78 -16 -85 -21 -7 -5 -13 -4 -15 3
-3 8 -11 10 -24 5 -32 -14 -251 -2 -334 18 -14 3 -36 8 -49 11 -13 2 -31 11
-41 20 -9 8 -20 15 -25 15 -5 0 -17 8 -28 17 -19 18 -20 17 -13 -18 5 -31 3
-37 -18 -47 -19 -9 -25 -8 -30 4 -8 20 -38 18 -34 -4 5 -26 -46 -28 -87 -2
l-35 22 0 -22 c0 -14 -4 -19 -12 -14 -7 4 -6 -1 3 -12 8 -10 21 -32 28 -49 8
-16 16 -25 18 -18 2 7 -1 22 -8 35 l-11 23 21 -22 c12 -13 28 -23 36 -23 8 0
15 -4 15 -10 0 -5 12 -10 26 -10 17 0 28 -6 31 -20 3 -11 11 -20 19 -20 15 0
36 -34 27 -44 -7 -6 12 -10 36 -7 7 2 10 -2 7 -7 -3 -6 0 -12 6 -15 7 -2 11
-7 8 -10 -3 -3 -25 3 -49 14 -24 10 -54 19 -67 19 -12 0 -26 5 -29 10 -7 12
-25 4 -25 -12 0 -5 6 -8 14 -5 8 3 16 -2 19 -14 3 -10 12 -19 21 -19 9 0 16
-7 16 -15 0 -13 67 -15 545 -15 467 0 545 2 545 14 0 11 11 14 50 11 28 -2 60
-7 73 -10 26 -7 17 -1 -63 43 -30 17 -56 37 -58 46 -4 17 54 51 79 48 9 -2 19
4 22 13 4 10 20 15 47 15 41 0 53 13 23 24 -10 4 -52 4 -94 0 -49 -4 -83 -2
-95 5 -11 6 -13 11 -6 11 7 0 10 5 7 10 -3 6 3 10 15 10 11 0 27 5 34 12 10
10 9 16 -6 32 -25 27 -23 51 8 71 l26 17 -25 17 -26 17 39 34 c22 19 39 41 40
48 0 7 16 27 36 44 19 17 41 43 49 58 8 15 47 61 88 103 40 43 70 77 67 77 -3
0 -15 -8 -26 -18 -10 -9 -46 -40 -79 -67 -33 -28 -66 -59 -74 -70 -20 -28
-132 -135 -141 -135 -5 0 -15 -3 -24 -6 -27 -10 -18 14 34 101 28 46 50 86 50
90 0 3 -15 -4 -32 -17 -33 -23 -36 -25 -63 -27 -8 0 -15 -4 -14 -8 2 -14 -13
-53 -20 -53 -21 0 -28 27 -23 86 4 56 2 63 -11 58 -14 -5 -17 5 -19 63 l-3 68
-13 -45 c-7 -25 -19 -53 -26 -63 -15 -20 -48 -13 -39 9 3 8 -1 14 -8 14 -8 0
-5 6 7 14 15 12 17 19 8 33 -9 14 -7 21 10 34 l21 17 -28 26 c-27 25 -37 71
-16 78 18 6 35 408 17 408 -5 0 -7 4 -3 9 3 5 1 12 -5 16 -5 3 -10 16 -10 29
0 12 -3 26 -7 30 -5 4 -9 20 -10 34 -1 15 -4 52 -7 83 -2 31 -9 66 -15 77 -6
11 -11 34 -11 51 0 52 -20 80 -34 46z m94 -895 c0 -5 -2 -10 -4 -10 -3 0 -8 5
-11 10 -3 6 -1 10 4 10 6 0 11 -4 11 -10z m-745 -801 c14 0 12 -3 -9 -10 -17
-4 -32 -6 -35 -4 -2 3 1 5 9 5 10 0 10 3 -1 18 -11 14 -11 15 1 5 8 -7 23 -13
35 -14z"/>
<path d="M1690 1730 c0 -5 5 -10 10 -10 6 0 10 5 10 10 0 6 -4 10 -10 10 -5 0
-10 -4 -10 -10z"/>
<path d="M1953 1713 c-10 -3 -9 -8 3 -20 8 -8 18 -12 22 -8 4 4 1 10 -6 12 -6
3 -10 9 -6 14 6 10 5 10 -13 2z"/>
<path d="M1975 1660 c-3 -5 -1 -10 4 -10 6 0 11 5 11 10 0 6 -2 10 -4 10 -3 0
-8 -4 -11 -10z"/>
<path d="M1977 1633 c-4 -3 -7 -15 -7 -25 0 -26 22 -18 27 10 3 21 -7 29 -20
15z"/>
<path d="M1994 1572 c3 -5 1 -12 -6 -14 -8 -3 -9 -6 -1 -11 6 -4 13 0 17 8 3
8 0 17 -6 21 -6 4 -8 3 -4 -4z"/>
<path d="M1450 1241 c0 -5 -3 -16 -6 -25 -4 -10 -1 -16 9 -16 20 0 29 14 21
34 -7 17 -24 22 -24 7z"/>
<path d="M1454 1146 c-3 -8 -12 -12 -20 -9 -8 3 -14 0 -14 -6 0 -6 4 -11 9
-11 13 0 6 -57 -8 -74 -7 -8 -10 -20 -6 -26 3 -5 -1 -13 -9 -16 -12 -5 -13
-10 -5 -26 6 -10 12 -61 15 -111 2 -51 8 -116 13 -146 5 -30 5 -66 1 -80 -4
-14 -2 -34 4 -43 7 -11 6 -24 -1 -40 -10 -22 -11 -22 -18 -3 -3 11 -11 28 -16
38 -5 10 -7 22 -4 27 4 6 -1 13 -10 16 -13 6 -14 8 -3 15 7 5 8 9 2 9 -5 0
-11 17 -11 37 -1 21 -6 39 -12 41 -6 2 -8 8 -5 14 4 5 2 20 -4 31 -6 12 -19
45 -28 72 -19 52 -37 78 -48 68 -3 -4 -6 -1 -6 5 0 7 -5 12 -11 12 -7 0 -10
-18 -7 -50 1 -28 -1 -50 -6 -50 -5 0 -3 -6 3 -13 6 -8 9 -16 6 -19 -9 -8 -55
3 -55 14 0 5 5 6 12 2 6 -4 8 -3 5 3 -4 7 -18 7 -41 -1 -26 -8 -33 -14 -27
-26 7 -13 7 -93 2 -228 -1 -21 -7 -35 -18 -39 -66 -25 -138 -83 -155 -125 -8
-20 28 -61 48 -54 6 2 16 0 22 -6 8 -8 72 -17 155 -21 9 -1 17 -6 17 -12 0 -5
4 -4 9 4 8 12 19 12 71 2 63 -13 77 -11 65 8 -3 6 -18 8 -33 5 -19 -5 -24 -3
-17 4 6 6 19 12 30 14 11 1 23 7 26 12 4 5 15 5 25 1 11 -5 25 -7 33 -6 8 1
10 -2 6 -9 -6 -9 -2 -9 14 -1 12 7 21 8 20 4 -1 -4 1 -16 6 -26 7 -16 17 -17
94 -11 105 8 118 13 93 39 -11 12 -18 36 -19 60 -2 94 -7 145 -16 145 -4 0 -6
9 -2 19 22 70 6 158 -31 167 -14 4 -22 13 -21 25 1 11 7 17 14 15 20 -8 15 8
-7 24 -11 8 -20 20 -20 26 0 6 -12 23 -26 38 l-26 26 23 20 c15 12 19 19 10
20 -10 0 -11 3 -3 13 18 21 3 59 -19 52 -16 -5 -19 -1 -20 27 0 23 -2 28 -7
15 -7 -17 -9 -17 -29 2 -14 13 -19 28 -16 41 8 31 24 24 18 -7 -6 -27 -6 -27
9 -9 21 25 20 40 -1 62 -17 17 -17 17 -1 11 10 -3 20 -2 23 3 4 6 -3 10 -15
10 -11 0 -23 -6 -26 -14z m56 -195 c0 -6 -4 -13 -10 -16 -5 -3 -10 1 -10 9 0
9 5 16 10 16 6 0 10 -4 10 -9z m-40 -509 c0 -4 -9 -13 -19 -19 -16 -10 -18 -9
-14 8 5 18 33 28 33 11z"/>
<path d="M1400 1069 c0 -5 5 -7 10 -4 6 3 10 8 10 11 0 2 -4 4 -10 4 -5 0 -10
-5 -10 -11z"/>
<path d="M1516 1047 c3 -10 9 -15 12 -12 3 3 0 11 -7 18 -10 9 -11 8 -5 -6z"/>
<path d="M1720 750 c0 -5 5 -10 11 -10 5 0 7 5 4 10 -3 6 -8 10 -11 10 -2 0
-4 -4 -4 -10z"/>
<path d="M2832 304 c10 -10 20 -15 24 -12 3 4 -5 12 -18 18 -22 12 -22 12 -6
-6z"/>
<path d="M2223 270 c-28 -11 -30 -19 -3 -17 11 1 22 7 24 14 3 7 4 13 3 12 -1
0 -12 -4 -24 -9z"/>
<path d="M720 249 c0 -5 5 -7 10 -4 6 3 10 8 10 11 0 2 -4 4 -10 4 -5 0 -10
-5 -10 -11z"/>
<path d="M2150 250 c-24 -8 -23 -8 8 -9 17 -1 32 4 32 9 0 11 -5 11 -40 0z"/>
<path d="M5770 100 c-12 -8 -10 -10 8 -10 13 0 20 4 17 10 -7 12 -6 12 -25 0z"/>
<path d="M5503 78 c-3 -7 -1 -8 5 -4 7 4 12 3 12 -3 0 -6 7 -8 15 -4 9 3 13 8
10 11 -10 11 -35 10 -42 0z"/>
</g>
</svg>
